HIERARCHY
ROOT joint_Root
{
	OFFSET 0.0 0.0 0.0
	CHANNELS 6 Xposition Yposition Zposition Zrotation Xrotation Yrotation 
	JOINT Hips
	{
		OFFSET 4.5925 91.4895 -427.239
		CHANNELS 6 Xposition Yposition Zposition Zrotation Xrotation Yrotation 
		JOINT Spine
		{
			OFFSET 15.7357 0.0 0.0
			CHANNELS 6 Xposition Yposition Zposition Zrotation Xrotation Yrotation 
			JOINT Chest
			{
				OFFSET 8.98455 -0.406207 0.0
				CHANNELS 6 Xposition Yposition Zposition Zrotation Xrotation Yrotation 
				JOINT Neck
				{
					OFFSET 16.3773 0.0 0.0
					CHANNELS 6 Xposition Yposition Zposition Zrotation Xrotation Yrotation 
					JOINT Head
					{
						OFFSET 6.45672 0.0 0.0
						CHANNELS 6 Xposition Yposition Zposition Zrotation Xrotation Yrotation 
						End Site
						{
							OFFSET 0.0 0.0 0.0
						}
					}
				}
				JOINT Shoulder_L
				{
					OFFSET 12.9942 -0.242716 4.98039
					CHANNELS 6 Xposition Yposition Zposition Zrotation Xrotation Yrotation 
					JOINT UpperArm_L
					{
						OFFSET 5.34809 0.0 0.0
						CHANNELS 6 Xposition Yposition Zposition Zrotation Xrotation Yrotation 
						JOINT LowerArm_L
						{
							OFFSET 24.3286 1.87007e-05 0.0
							CHANNELS 6 Xposition Yposition Zposition Zrotation Xrotation Yrotation 
							JOINT Hand_L
							{
								OFFSET 22.2916 0.0 0.0
								CHANNELS 6 Xposition Yposition Zposition Zrotation Xrotation Yrotation 
								End Site
								{
									OFFSET 0.0 0.0 0.0
								}
							}
						}
					}
				}
				JOINT Shoulder_R
				{
					OFFSET 12.9945 -0.242716 -4.98039
					CHANNELS 6 Xposition Yposition Zposition Zrotation Xrotation Yrotation 
					JOINT UpperArm_R
					{
						OFFSET -5.34813 0.0 0.0
						CHANNELS 6 Xposition Yposition Zposition Zrotation Xrotation Yrotation 
						JOINT LowerArm_R
						{
							OFFSET -24.3289 0.000322201 0.0
							CHANNELS 6 Xposition Yposition Zposition Zrotation Xrotation Yrotation 
							JOINT Hand_R
							{
								OFFSET -22.2915 -0.000108084 0.0
								CHANNELS 6 Xposition Yposition Zposition Zrotation Xrotation Yrotation 
								End Site
								{
									OFFSET 0.0 0.0 0.0
								}
							}
						}
					}
				}
			}
		}
		JOINT UpperLeg_L
		{
			OFFSET -2.19248 -6.46944 0.0
			CHANNELS 6 Xposition Yposition Zposition Zrotation Xrotation Yrotation 
			JOINT LowerLeg_L
			{
				OFFSET 39.0811 0.0 -1.23785e-05
				CHANNELS 6 Xposition Yposition Zposition Zrotation Xrotation Yrotation 
				JOINT Foot_L
				{
					OFFSET 40.9854 0.0 -1.26872e-05
					CHANNELS 6 Xposition Yposition Zposition Zrotation Xrotation Yrotation 
					JOINT Toes_L
					{
						OFFSET 11.7543 0.0 0.0
						CHANNELS 6 Xposition Yposition Zposition Zrotation Xrotation Yrotation 
						End Site
						{
							OFFSET 0.0 0.0 0.0
						}
					}
				}
			}
		}
		JOINT UpperLeg_R
		{
			OFFSET -2.19251 6.46944 0.0
			CHANNELS 6 Xposition Yposition Zposition Zrotation Xrotation Yrotation 
			JOINT LowerLeg_R
			{
				OFFSET -39.0811 -0.00228153 -0.0401928
				CHANNELS 6 Xposition Yposition Zposition Zrotation Xrotation Yrotation 
				JOINT Foot_R
				{
					OFFSET -40.9854 0.0 0.0
					CHANNELS 6 Xposition Yposition Zposition Zrotation Xrotation Yrotation 
					JOINT Toes_R
					{
						OFFSET -11.7543 0.0 0.0
						CHANNELS 6 Xposition Yposition Zposition Zrotation Xrotation Yrotation 
						End Site
						{
							OFFSET 0.0 0.0 0.0
						}
					}
				}
			}
		}
	}
}
MOTION
Frames:	4
Frame Time:	0.0333333
0.000000 0.000000 0.000000 0.000000 0.000000 -0.000000 -75.687000 90.096500 185.009000 83.959700 83.182300 5.835570 15.735700 0.000005 -0.000001 98.149100 80.712200 -97.749500 8.984550 -0.406207 -0.000000 10.621000 2.624550 0.554742 16.377300 -0.000001 -0.000001 -0.243823 -3.419030 2.500000 6.456720 -0.000001 -0.000000 -4.231920 -3.327430 0.909008 12.994200 -0.242716 4.980390 -90.596100 2.018060 -73.539800 5.348090 -0.000007 -0.000001 -69.501000 37.406200 -13.831600 24.328600 0.000019 0.000005 7.313230 18.834500 -21.680200 22.291600 -0.000001 0.000005 10.799100 5.209590 2.477740 12.994500 -0.242716 -4.980390 88.975600 8.474620 -83.081900 -5.348130 -0.000001 -0.000004 -52.340300 27.406000 -28.128400 -24.328900 0.000322 -0.000009 -1.227240 -2.102010 -30.265100 -22.291500 -0.000108 -0.000004 19.519000 5.433400 -4.055790 -2.192480 -6.469440 -0.000000 -178.263000 -6.838280 -27.381400 39.081100 -0.000007 -0.000012 0.054895 -0.109048 26.720900 40.985400 -0.000006 -0.000013 -0.420559 0.691518 -58.382100 11.754300 -0.000000 0.000003 -0.002391 -0.033513 -17.939500 -2.192510 6.469440 -0.000001 178.533000 17.320000 172.802000 -39.081100 -0.002282 -0.040193 0.014085 -0.017391 31.810100 -40.985400 0.000008 0.000006 6.966550 7.902830 -75.484300 -11.754300 -0.000006 -0.000006 -0.003026 -0.040891 -18.236100
0.000000 0.000000 0.000000 0.000000 0.000000 -0.000000 -73.106800 89.638600 184.619000 90.378500 82.480900 -0.701927 15.735700 0.000005 -0.000001 97.910500 80.864800 -98.077200 8.984550 -0.406207 -0.000000 10.341400 2.493970 -0.558774 16.377300 -0.000001 -0.000001 -0.190027 -3.273900 2.530670 6.456720 -0.000001 -0.000000 -4.378860 -3.243720 0.997670 12.994200 -0.242716 4.980390 -90.610500 2.077970 -73.623000 5.348090 -0.000007 -0.000001 -69.982300 36.840300 -13.021700 24.328600 0.000019 0.000005 6.479740 19.596600 -18.707900 22.291600 -0.000001 0.000005 10.449900 5.206650 2.552030 12.994500 -0.242716 -4.980390 89.012500 8.510010 -83.356500 -5.348130 -0.000001 -0.000004 -50.855500 27.666500 -30.066800 -24.328900 0.000322 -0.000009 -1.322780 -2.182310 -31.211400 -22.291500 -0.000108 -0.000004 19.710000 5.437450 -4.196500 -2.192480 -6.469440 -0.000000 -179.601000 -7.447710 -28.324400 39.081100 -0.000007 -0.000012 0.039173 -0.075314 27.479900 40.985400 -0.000006 -0.000013 0.228196 1.948800 -54.404000 11.754300 -0.000000 0.000003 -0.002295 -0.032358 -17.892600 -2.192510 6.469440 -0.000001 176.932000 15.767700 173.634000 -39.081100 -0.002282 -0.040193 0.014371 -0.016900 33.241200 -40.985400 0.000008 0.000006 6.282470 7.066780 -76.921900 -11.754300 -0.000006 -0.000006 -0.002999 -0.040587 -18.223700
0.000000 0.000000 0.000000 0.000000 0.000000 -0.000000 -70.111200 89.021700 184.135000 96.548300 81.591800 -6.779280 15.735700 0.000005 -0.000001 97.513300 81.142200 -98.287600 8.984550 -0.406207 -0.000000 9.819160 2.288470 -1.744220 16.377300 -0.000001 -0.000001 0.043436 -3.090140 2.377810 6.456720 -0.000001 -0.000000 -4.096080 -3.105510 0.873714 12.994200 -0.242716 4.980390 -90.661700 2.238660 -73.528500 5.348090 -0.000007 -0.000001 -70.055300 36.383400 -12.547000 24.328600 0.000019 0.000005 5.770980 21.060400 -15.709300 22.291600 -0.000001 0.000005 9.838080 5.183340 3.134220 12.994500 -0.242716 -4.980390 89.050400 8.331310 -83.473900 -5.348130 -0.000001 -0.000004 -50.174000 28.209700 -31.504600 -24.328900 0.000322 -0.000009 -1.154590 -1.902120 -31.241600 -22.291500 -0.000108 -0.000004 19.965200 5.436100 -4.149750 -2.192480 -6.469440 -0.000000 179.412000 -6.987260 -28.969300 39.081100 -0.000007 -0.000012 -0.010642 0.017152 31.820800 40.985400 -0.000006 -0.000013 0.541544 1.963290 -53.541300 11.754300 -0.000000 0.000003 -0.000368 -0.005977 -16.820200 -2.192510 6.469440 -0.000001 175.179000 13.591700 174.128000 -39.081100 -0.002282 -0.040193 0.014600 -0.015641 35.873100 -40.985400 0.000008 0.000006 5.389810 5.666210 -77.664300 -11.754300 -0.000006 -0.000006 -0.747391 -0.899084 -19.233100
0.000000 0.000000 0.000000 0.000000 0.000000 -0.000000 -67.106900 88.582700 183.749000 98.243000 81.306500 -7.945360 15.735700 0.000005 -0.000001 96.404200 81.275000 -97.545100 8.984550 -0.406207 -0.000000 9.599340 1.916790 -2.441170 16.377300 -0.000001 -0.000001 -0.062882 -3.026580 2.139380 6.456720 -0.000001 -0.000000 -3.806700 -3.003300 0.630971 12.994200 -0.242716 4.980390 -90.776400 2.627370 -73.530300 5.348090 -0.000007 -0.000001 -69.296800 35.706200 -12.811400 24.328600 0.000019 0.000005 5.106900 22.726800 -13.025700 22.291600 -0.000001 0.000005 9.302810 5.160620 3.688490 12.994500 -0.242716 -4.980390 89.047000 8.376980 -83.486200 -5.348130 -0.000001 -0.000004 -50.437600 28.256100 -32.051800 -24.328900 0.000322 -0.000009 -0.720569 -1.195850 -31.035800 -22.291500 -0.000108 -0.000004 20.189500 5.433280 -4.052070 -2.192480 -6.469440 -0.000000 179.313000 -5.171890 -28.797300 39.081100 -0.000007 -0.000012 -0.088643 0.119379 36.595500 40.985400 -0.000006 -0.000013 0.315176 -0.055248 -57.950900 11.754300 -0.000000 0.000003 -0.000043 -0.000496 -16.596900 -2.192510 6.469440 -0.000001 174.368000 11.362200 173.334000 -39.081100 -0.002282 -0.040193 0.031674 -0.032298 41.324500 -40.985400 0.000008 0.000006 4.521820 3.418660 -75.979800 -11.754300 -0.000006 -0.000006 -0.014993 -0.137774 -22.194200
